# xmcd
#
# Track frame offsets: 
#        183
#        13443
#        24005
#        43468
#        56460
#        72428
#        83085
#        95533
#        107900
#        119663
#        133955
#        146973
#        159693
#        173013
#        186893
#        198585
#        214015
#        225230
#        238328
#        249720
#        260390
#        272338
#
# Disc length: 3777 seconds
#
# Revision: 2
# Processed by: cddbd v1.4PL0 Copyright (c) Steve Scherf et al.
# Submitted via: ExactAudioCopy v0.90b4
#
DISCID=4b0ebf16
DTITLE=Mac Wiseman - Grassroots To Bluegrass
DYEAR=1900
DGENRE=
TTITLE0=Don't Let Your Deal Go Down
TTITLE1=Train
TTITLE2=Little Rosewood Casket
TTITLE3=Poor Ellen Smith
TTITLE4=Kentucky
TTITLE5=Salty Dog Blues
TTITLE6=Dust On The Bible
TTITLE7=It's Mighty Dark To Travel
TTITLE8=Old Camp Meeting Time
TTITLE9=Streamlined Cannonball
TTITLE10=Red Rocking Chair
TTITLE11=Doin' My Time
TTITLE12=I'm Just Here To Get My Baby Out Of Jail
TTITLE13=Wait For The Light To Shine
TTITLE14=(Beneath That) Lonely Mound Of Clay
TTITLE15=Short Life Of Trouble
TTITLE16=Crying Heart Blues
TTITLE17=Don't Give Your Heart To A Rambler
TTITLE18=I'm Using My Bible For A Road Map
TTITLE19=How Mountain Girls Can Love
TTITLE20=Sailor On The Deep Blue Sea
TTITLE21=Light At The River
EXTD=
EXTT0=
EXTT1=
EXTT2=
EXTT3=
EXTT4=
EXTT5=
EXTT6=
EXTT7=
EXTT8=
EXTT9=
EXTT10=
EXTT11=
EXTT12=
EXTT13=
EXTT14=
EXTT15=
EXTT16=
EXTT17=
EXTT18=
EXTT19=
EXTT20=
EXTT21=
PLAYORDER=
